<svg width="35" height="38" viewBox="0 0 35 38" fill="none" xmlns="http://www.w3.org/2000/svg">
<path d="M19.5037 0.798305C18.9622 0.285646 18.2452 0 17.5 0C16.7547 0 16.0378 0.285646 15.4962 0.798305L1.36788 14.1685C0.935289 14.5784 0.59083 15.0724 0.355614 15.6203C0.120398 16.1682 -0.000622251 16.7584 -3.21849e-05 17.3548V33.6221C0.000741026 34.7835 0.462018 35.897 1.28241 36.7179C2.10279 37.5389 3.21515 38 4.37497 38H8.74997C9.91029 38 11.0231 37.5385 11.8436 36.7169C12.664 35.8953 13.125 34.7811 13.125 33.6192V26.3179C13.125 25.9306 13.2786 25.5592 13.5521 25.2853C13.8256 25.0115 14.1965 24.8576 14.5833 24.8576H20.4166C20.8034 24.8576 21.1743 25.0115 21.4478 25.2853C21.7213 25.5592 21.875 25.9306 21.875 26.3179V33.6192C21.875 34.7811 22.3359 35.8953 23.1564 36.7169C23.9768 37.5385 25.0896 38 26.25 38H30.625C31.7853 38 32.8981 37.5385 33.7186 36.7169C34.539 35.8953 35 34.7811 35 33.6192V17.3519C34.9998 16.7558 34.8781 16.166 34.6424 15.6186C34.4067 15.0712 34.0619 14.5778 33.6291 14.1685L19.5037 0.792464V0.798305Z" fill="#4ECB71"/>
</svg>
