<svg width="101" height="100" viewBox="0 0 101 100" fill="none" xmlns="http://www.w3.org/2000/svg">
<g clip-path="url(#clip0_30_496)">
<path d="M50.5008 0.396729C37.3452 0.396729 24.7284 5.62276 15.426 14.9252C6.12363 24.2276 0.897598 36.8443 0.897598 49.9999C0.897598 63.1555 6.12363 75.7722 15.426 85.0746C24.7284 94.377 37.3452 99.6031 50.5008 99.6031C63.6564 99.6031 76.2731 94.377 85.5755 85.0746C94.8779 75.7722 100.104 63.1555 100.104 49.9999C100.104 36.8443 94.8779 24.2276 85.5755 14.9252C76.2731 5.62276 63.6564 0.396729 50.5008 0.396729Z" fill="#29B6F6"/>
<path d="M75.1783 27.6787L65.8877 75.1142C65.8877 75.1142 65.4884 77.2818 62.7999 77.2818C61.3713 77.2818 60.6347 76.6023 60.6347 76.6023L40.5107 59.9034L30.6645 54.9406L18.0281 51.5799C18.0281 51.5799 15.7785 50.9301 15.7785 49.07C15.7785 47.5199 18.0925 46.7808 18.0925 46.7808L70.9596 25.7789C70.9571 25.7764 72.5742 25.196 73.7523 25.1985C74.4765 25.1985 75.3024 25.5085 75.3024 26.4386C75.3024 27.0586 75.1783 27.6787 75.1783 27.6787Z" fill="white"/>
<path d="M48.0195 66.1335L39.5225 74.5016C39.5225 74.5016 39.153 74.7868 38.6594 74.7992C38.4883 74.8041 38.3047 74.7769 38.1163 74.6925L40.5071 59.8984L48.0195 66.1335Z" fill="#B0BEC5"/>
<path d="M65.1263 35.6052C64.7071 35.0596 63.9333 34.9604 63.3877 35.3746L30.6595 54.9604C30.6595 54.9604 35.8827 69.5735 36.6788 72.1032C37.4775 74.6355 38.1173 74.695 38.1173 74.695L40.5082 59.9009L64.8931 37.3413C65.4388 36.9272 65.5404 36.1509 65.1263 35.6052Z" fill="#CFD8DC"/>
</g>
<defs>
<clipPath id="clip0_30_496">
<rect width="100" height="100" fill="white" transform="translate(0.5)"/>
</clipPath>
</defs>
</svg>
