<svg width="50" height="38" viewBox="0 0 50 38" fill="none" xmlns="http://www.w3.org/2000/svg">
<path d="M0 9.5C0 6.98044 1.09747 4.56408 3.05097 2.78249C5.00447 1.00089 7.65399 0 10.4167 0H39.5833C42.346 0 44.9955 1.00089 46.949 2.78249C48.9025 4.56408 50 6.98044 50 9.5V28.5C50 31.0196 48.9025 33.4359 46.949 35.2175C44.9955 36.9991 42.346 38 39.5833 38H10.4167C7.65399 38 5.00447 36.9991 3.05097 35.2175C1.09747 33.4359 0 31.0196 0 28.5V9.5ZM18.75 10.716V27.284C18.75 28.234 19.8917 28.8154 20.7792 28.3214L34.3583 20.7518C34.6876 20.5686 34.9598 20.3112 35.1486 20.0045C35.3374 19.6977 35.4366 19.3518 35.4366 19C35.4366 18.6482 35.3374 18.3023 35.1486 17.9955C34.9598 17.6888 34.6876 17.4314 34.3583 17.2482L20.775 9.6824C20.573 9.5706 20.342 9.50978 20.1057 9.50616C19.8694 9.50254 19.6364 9.55626 19.4303 9.6618C19.2243 9.76735 19.0527 9.92094 18.9332 10.1068C18.8136 10.2927 18.7504 10.5043 18.75 10.7198V10.716Z" fill="#F24E1E"/>
</svg>
